<svg width="463" height="55" viewBox="0 0 463 55" fill="none" xmlns="http://www.w3.org/2000/svg">
<rect x="18" width="30" height="30" rx="15" fill="#474747"/>
<path d="M1.0806 49V39.2H2.6906V49H1.0806ZM4.60302 49V42.28H6.14302V49H4.60302ZM9.06902 49V44.996C9.06902 44.548 8.92902 44.2027 8.64902 43.96C8.36902 43.708 8.02369 43.582 7.61302 43.582C7.33302 43.582 7.08102 43.638 6.85702 43.75C6.64236 43.862 6.46969 44.0253 6.33902 44.24C6.20836 44.4453 6.14302 44.6973 6.14302 44.996L5.54102 44.66C5.54102 44.1467 5.65302 43.7033 5.87702 43.33C6.10102 42.9567 6.40436 42.6673 6.78702 42.462C7.16969 42.2473 7.59902 42.14 8.07502 42.14C8.55102 42.14 8.98036 42.2427 9.36302 42.448C9.74569 42.6533 10.049 42.9427 10.273 43.316C10.497 43.6893 10.609 44.1373 10.609 44.66V49H9.06902ZM13.535 49V44.996C13.535 44.548 13.395 44.2027 13.115 43.96C12.835 43.708 12.4897 43.582 12.079 43.582C11.8084 43.582 11.561 43.638 11.337 43.75C11.113 43.862 10.9357 44.0253 10.805 44.24C10.6744 44.4453 10.609 44.6973 10.609 44.996L9.74102 44.66C9.78769 44.1467 9.93702 43.7033 10.189 43.33C10.441 42.9567 10.763 42.6673 11.155 42.462C11.5564 42.2473 11.995 42.14 12.471 42.14C12.9564 42.14 13.395 42.2427 13.787 42.448C14.179 42.6533 14.4917 42.9427 14.725 43.316C14.9584 43.6893 15.075 44.1373 15.075 44.66V49H13.535ZM20.2596 49.14C19.7463 49.14 19.289 49.0327 18.8876 48.818C18.4863 48.594 18.169 48.2907 17.9356 47.908C17.7116 47.5253 17.5996 47.0913 17.5996 46.606V44.674C17.5996 44.1887 17.7163 43.7547 17.9496 43.372C18.183 42.9893 18.5003 42.6907 18.9016 42.476C19.303 42.252 19.7556 42.14 20.2596 42.14C20.8663 42.14 21.4123 42.2987 21.8976 42.616C22.3923 42.924 22.7796 43.344 23.0596 43.876C23.349 44.3987 23.4936 44.9913 23.4936 45.654C23.4936 46.3073 23.349 46.9 23.0596 47.432C22.7796 47.9547 22.3923 48.37 21.8976 48.678C21.4123 48.986 20.8663 49.14 20.2596 49.14ZM20.0076 47.684C20.381 47.684 20.7076 47.6 20.9876 47.432C21.277 47.2547 21.501 47.012 21.6596 46.704C21.8276 46.396 21.9116 46.0413 21.9116 45.64C21.9116 45.2387 21.8276 44.884 21.6596 44.576C21.501 44.268 21.277 44.03 20.9876 43.862C20.7076 43.6847 20.381 43.596 20.0076 43.596C19.6343 43.596 19.303 43.6847 19.0136 43.862C18.7243 44.03 18.5003 44.268 18.3416 44.576C18.183 44.884 18.1036 45.2387 18.1036 45.64C18.1036 46.0413 18.183 46.396 18.3416 46.704C18.5003 47.012 18.7243 47.2547 19.0136 47.432C19.303 47.6 19.6343 47.684 20.0076 47.684ZM16.6616 51.8V42.28H18.2016V44.086L17.9356 45.724L18.2016 47.348V51.8H16.6616ZM27.8627 49.14C27.2094 49.14 26.6167 48.986 26.0847 48.678C25.5527 48.3607 25.128 47.936 24.8107 47.404C24.5027 46.872 24.3487 46.2793 24.3487 45.626C24.3487 44.9727 24.5027 44.3847 24.8107 43.862C25.128 43.3393 25.5527 42.924 26.0847 42.616C26.6167 42.2987 27.2094 42.14 27.8627 42.14C28.5254 42.14 29.1227 42.294 29.6547 42.602C30.1867 42.91 30.6067 43.33 30.9147 43.862C31.232 44.3847 31.3907 44.9727 31.3907 45.626C31.3907 46.2793 31.232 46.872 30.9147 47.404C30.6067 47.936 30.1867 48.3607 29.6547 48.678C29.1227 48.986 28.5254 49.14 27.8627 49.14ZM27.8627 47.656C28.2454 47.656 28.5814 47.572 28.8707 47.404C29.1694 47.2267 29.398 46.984 29.5567 46.676C29.7247 46.368 29.8087 46.018 29.8087 45.626C29.8087 45.234 29.7247 44.8887 29.5567 44.59C29.3887 44.2913 29.16 44.058 28.8707 43.89C28.5814 43.7127 28.2454 43.624 27.8627 43.624C27.4894 43.624 27.1534 43.7127 26.8547 43.89C26.5654 44.058 26.3367 44.2913 26.1687 44.59C26.01 44.8887 25.9307 45.234 25.9307 45.626C25.9307 46.018 26.01 46.368 26.1687 46.676C26.3367 46.984 26.5654 47.2267 26.8547 47.404C27.1534 47.572 27.4894 47.656 27.8627 47.656ZM34.8694 49.14C34.496 49.14 34.1367 49.0933 33.7914 49C33.446 48.8973 33.1287 48.7573 32.8394 48.58C32.55 48.3933 32.298 48.1693 32.0834 47.908L33.0634 46.928C33.2967 47.1987 33.5627 47.404 33.8614 47.544C34.1694 47.6747 34.5147 47.74 34.8974 47.74C35.2427 47.74 35.504 47.6887 35.6814 47.586C35.8587 47.4833 35.9474 47.334 35.9474 47.138C35.9474 46.9327 35.8634 46.774 35.6954 46.662C35.5274 46.55 35.308 46.4567 35.0374 46.382C34.776 46.298 34.496 46.214 34.1974 46.13C33.908 46.046 33.628 45.934 33.3574 45.794C33.096 45.6447 32.8814 45.444 32.7134 45.192C32.5454 44.94 32.4614 44.6133 32.4614 44.212C32.4614 43.7827 32.5594 43.414 32.7554 43.106C32.9607 42.798 33.2454 42.56 33.6094 42.392C33.9827 42.224 34.426 42.14 34.9394 42.14C35.4807 42.14 35.9567 42.238 36.3674 42.434C36.7874 42.6207 37.1374 42.9053 37.4174 43.288L36.4374 44.268C36.2414 44.0253 36.0174 43.8433 35.7654 43.722C35.5134 43.6007 35.224 43.54 34.8974 43.54C34.5894 43.54 34.3514 43.5867 34.1834 43.68C34.0154 43.7733 33.9314 43.9087 33.9314 44.086C33.9314 44.2727 34.0154 44.4173 34.1834 44.52C34.3514 44.6227 34.566 44.7113 34.8274 44.786C35.098 44.8607 35.378 44.9447 35.6674 45.038C35.966 45.122 36.246 45.2433 36.5074 45.402C36.778 45.5513 36.9974 45.7567 37.1654 46.018C37.3334 46.27 37.4174 46.6013 37.4174 47.012C37.4174 47.6653 37.1887 48.1833 36.7314 48.566C36.274 48.9487 35.6534 49.14 34.8694 49.14ZM40.885 49.14C40.5117 49.14 40.1523 49.0933 39.807 49C39.4617 48.8973 39.1443 48.7573 38.855 48.58C38.5657 48.3933 38.3137 48.1693 38.099 47.908L39.079 46.928C39.3123 47.1987 39.5783 47.404 39.877 47.544C40.185 47.6747 40.5303 47.74 40.913 47.74C41.2583 47.74 41.5197 47.6887 41.697 47.586C41.8743 47.4833 41.963 47.334 41.963 47.138C41.963 46.9327 41.879 46.774 41.711 46.662C41.543 46.55 41.3237 46.4567 41.053 46.382C40.7917 46.298 40.5117 46.214 40.213 46.13C39.9237 46.046 39.6437 45.934 39.373 45.794C39.1117 45.6447 38.897 45.444 38.729 45.192C38.561 44.94 38.477 44.6133 38.477 44.212C38.477 43.7827 38.575 43.414 38.771 43.106C38.9763 42.798 39.261 42.56 39.625 42.392C39.9983 42.224 40.4417 42.14 40.955 42.14C41.4963 42.14 41.9723 42.238 42.383 42.434C42.803 42.6207 43.153 42.9053 43.433 43.288L42.453 44.268C42.257 44.0253 42.033 43.8433 41.781 43.722C41.529 43.6007 41.2397 43.54 40.913 43.54C40.605 43.54 40.367 43.5867 40.199 43.68C40.031 43.7733 39.947 43.9087 39.947 44.086C39.947 44.2727 40.031 44.4173 40.199 44.52C40.367 44.6227 40.5817 44.7113 40.843 44.786C41.1137 44.8607 41.3937 44.9447 41.683 45.038C41.9817 45.122 42.2617 45.2433 42.523 45.402C42.7937 45.5513 43.013 45.7567 43.181 46.018C43.349 46.27 43.433 46.6013 43.433 47.012C43.433 47.6653 43.2043 48.1833 42.747 48.566C42.2897 48.9487 41.669 49.14 40.885 49.14ZM44.7166 49V42.28H46.2566V49H44.7166ZM45.4866 41.048C45.2253 41.048 45.006 40.9593 44.8286 40.782C44.6606 40.6047 44.5766 40.3853 44.5766 40.124C44.5766 39.8627 44.6606 39.6433 44.8286 39.466C45.006 39.2887 45.2253 39.2 45.4866 39.2C45.7573 39.2 45.9766 39.2887 46.1446 39.466C46.3126 39.6433 46.3966 39.8627 46.3966 40.124C46.3966 40.3853 46.3126 40.6047 46.1446 40.782C45.9766 40.9593 45.7573 41.048 45.4866 41.048ZM51.5819 49.14C51.0685 49.14 50.6112 49.0327 50.2099 48.818C49.8085 48.594 49.4912 48.2907 49.2579 47.908C49.0339 47.5253 48.9219 47.0913 48.9219 46.606V44.674C48.9219 44.1887 49.0385 43.7547 49.2719 43.372C49.5052 42.9893 49.8225 42.6907 50.2239 42.476C50.6252 42.252 51.0779 42.14 51.5819 42.14C52.1885 42.14 52.7345 42.2987 53.2199 42.616C53.7145 42.924 54.1019 43.344 54.3819 43.876C54.6712 44.3987 54.8159 44.9913 54.8159 45.654C54.8159 46.3073 54.6712 46.9 54.3819 47.432C54.1019 47.9547 53.7145 48.37 53.2199 48.678C52.7345 48.986 52.1885 49.14 51.5819 49.14ZM51.3299 47.684C51.7032 47.684 52.0299 47.6 52.3099 47.432C52.5992 47.2547 52.8232 47.012 52.9819 46.704C53.1499 46.396 53.2339 46.0413 53.2339 45.64C53.2339 45.2387 53.1499 44.884 52.9819 44.576C52.8232 44.268 52.5992 44.03 52.3099 43.862C52.0299 43.6847 51.7032 43.596 51.3299 43.596C50.9565 43.596 50.6252 43.6847 50.3359 43.862C50.0465 44.03 49.8225 44.268 49.6639 44.576C49.5052 44.884 49.4259 45.2387 49.4259 45.64C49.4259 46.0413 49.5052 46.396 49.6639 46.704C49.8225 47.012 50.0465 47.2547 50.3359 47.432C50.6252 47.6 50.9565 47.684 51.3299 47.684ZM47.9839 49V38.92H49.5239V43.932L49.2579 45.556L49.5239 47.194V49H47.9839ZM56.105 49V38.92H57.645V49H56.105ZM62.4809 49.14C61.8089 49.14 61.2022 48.9907 60.6609 48.692C60.1289 48.384 59.7042 47.964 59.3869 47.432C59.0789 46.9 58.9249 46.3027 58.9249 45.64C58.9249 44.9773 59.0789 44.3847 59.3869 43.862C59.6949 43.33 60.1102 42.91 60.6329 42.602C61.1649 42.294 61.7529 42.14 62.3969 42.14C63.0222 42.14 63.5729 42.2847 64.0489 42.574C64.5342 42.8633 64.9122 43.26 65.1829 43.764C65.4629 44.268 65.6029 44.842 65.6029 45.486C65.6029 45.598 65.5935 45.7147 65.5749 45.836C65.5655 45.948 65.5469 46.074 65.5189 46.214H60.0029V44.954H64.7209L64.1469 45.458C64.1282 45.0473 64.0489 44.702 63.9089 44.422C63.7689 44.142 63.5682 43.9273 63.3069 43.778C63.0549 43.6287 62.7422 43.554 62.3689 43.554C61.9769 43.554 61.6362 43.638 61.3469 43.806C61.0575 43.974 60.8335 44.212 60.6749 44.52C60.5162 44.8187 60.4369 45.178 60.4369 45.598C60.4369 46.018 60.5209 46.3867 60.6889 46.704C60.8569 47.0213 61.0949 47.2687 61.4029 47.446C61.7109 47.614 62.0655 47.698 62.4669 47.698C62.8122 47.698 63.1295 47.6373 63.4189 47.516C63.7175 47.3947 63.9695 47.2173 64.1749 46.984L65.1549 47.978C64.8282 48.3607 64.4315 48.65 63.9649 48.846C63.4982 49.042 63.0035 49.14 62.4809 49.14Z" fill="white"/>
<rect x="103" width="30" height="30" rx="15" fill="#C70000"/>
<path d="M90.6818 49L86.7198 39.2H88.4698L91.5638 47.138H90.9478L94.0698 39.2H95.7918L91.8018 49H90.6818ZM98.7543 49.14C98.0823 49.14 97.4757 48.9907 96.9343 48.692C96.4023 48.384 95.9777 47.964 95.6603 47.432C95.3523 46.9 95.1983 46.3027 95.1983 45.64C95.1983 44.9773 95.3523 44.3847 95.6603 43.862C95.9683 43.33 96.3837 42.91 96.9063 42.602C97.4383 42.294 98.0263 42.14 98.6703 42.14C99.2957 42.14 99.8463 42.2847 100.322 42.574C100.808 42.8633 101.186 43.26 101.456 43.764C101.736 44.268 101.876 44.842 101.876 45.486C101.876 45.598 101.867 45.7147 101.848 45.836C101.839 45.948 101.82 46.074 101.792 46.214H96.2763V44.954H100.994L100.42 45.458C100.402 45.0473 100.322 44.702 100.182 44.422C100.042 44.142 99.8417 43.9273 99.5803 43.778C99.3283 43.6287 99.0157 43.554 98.6423 43.554C98.2503 43.554 97.9097 43.638 97.6203 43.806C97.331 43.974 97.107 44.212 96.9483 44.52C96.7897 44.8187 96.7103 45.178 96.7103 45.598C96.7103 46.018 96.7943 46.3867 96.9623 46.704C97.1303 47.0213 97.3683 47.2687 97.6763 47.446C97.9843 47.614 98.339 47.698 98.7403 47.698C99.0857 47.698 99.403 47.6373 99.6923 47.516C99.991 47.3947 100.243 47.2173 100.448 46.984L101.428 47.978C101.102 48.3607 100.705 48.65 100.238 48.846C99.7717 49.042 99.277 49.14 98.7543 49.14ZM103.111 49V42.28H104.651V49H103.111ZM104.651 45.262L104.119 44.996C104.119 44.1467 104.306 43.4607 104.679 42.938C105.062 42.406 105.636 42.14 106.401 42.14C106.737 42.14 107.04 42.2007 107.311 42.322C107.582 42.4433 107.834 42.6393 108.067 42.91L107.059 43.946C106.938 43.8153 106.802 43.722 106.653 43.666C106.504 43.61 106.331 43.582 106.135 43.582C105.706 43.582 105.351 43.7173 105.071 43.988C104.791 44.2587 104.651 44.6833 104.651 45.262ZM110.886 49.07L108.016 42.28H109.71L111.67 47.264H111.18L113.252 42.28H114.96L111.838 49.07H110.886ZM108.884 51.8L110.97 47.502L111.838 49.07L110.592 51.8H108.884ZM118.975 49V39.2H120.585V49H118.975ZM125.205 49V39.2H126.815V49H125.205ZM120.081 44.66V43.19H125.555V44.66H120.081ZM131.546 49.14C130.939 49.14 130.389 48.986 129.894 48.678C129.409 48.37 129.021 47.9547 128.732 47.432C128.452 46.9 128.312 46.3073 128.312 45.654C128.312 44.9913 128.452 44.3987 128.732 43.876C129.021 43.344 129.409 42.924 129.894 42.616C130.389 42.2987 130.939 42.14 131.546 42.14C132.059 42.14 132.512 42.252 132.904 42.476C133.305 42.6907 133.623 42.9893 133.856 43.372C134.089 43.7547 134.206 44.1887 134.206 44.674V46.606C134.206 47.0913 134.089 47.5253 133.856 47.908C133.632 48.2907 133.319 48.594 132.918 48.818C132.517 49.0327 132.059 49.14 131.546 49.14ZM131.798 47.684C132.367 47.684 132.825 47.4927 133.17 47.11C133.525 46.7273 133.702 46.2373 133.702 45.64C133.702 45.2387 133.623 44.884 133.464 44.576C133.305 44.268 133.081 44.03 132.792 43.862C132.512 43.6847 132.181 43.596 131.798 43.596C131.425 43.596 131.093 43.6847 130.804 43.862C130.524 44.03 130.3 44.268 130.132 44.576C129.973 44.884 129.894 45.2387 129.894 45.64C129.894 46.0413 129.973 46.396 130.132 46.704C130.3 47.012 130.524 47.2547 130.804 47.432C131.093 47.6 131.425 47.684 131.798 47.684ZM133.604 49V47.194L133.87 45.556L133.604 43.932V42.28H135.144V49H133.604ZM136.853 49V42.28H138.393V49H136.853ZM138.393 45.262L137.861 44.996C137.861 44.1467 138.048 43.4607 138.421 42.938C138.804 42.406 139.378 42.14 140.143 42.14C140.479 42.14 140.782 42.2007 141.053 42.322C141.324 42.4433 141.576 42.6393 141.809 42.91L140.801 43.946C140.68 43.8153 140.544 43.722 140.395 43.666C140.246 43.61 140.073 43.582 139.877 43.582C139.448 43.582 139.093 43.7173 138.813 43.988C138.533 44.2587 138.393 44.6833 138.393 45.262ZM145.163 49.14C144.556 49.14 144.006 48.986 143.511 48.678C143.026 48.37 142.638 47.9547 142.349 47.432C142.069 46.9 141.929 46.3073 141.929 45.654C141.929 44.9913 142.069 44.3987 142.349 43.876C142.638 43.344 143.026 42.924 143.511 42.616C144.006 42.2987 144.556 42.14 145.163 42.14C145.676 42.14 146.129 42.252 146.521 42.476C146.922 42.6907 147.24 42.9893 147.473 43.372C147.706 43.7547 147.823 44.1887 147.823 44.674V46.606C147.823 47.0913 147.706 47.5253 147.473 47.908C147.249 48.2907 146.936 48.594 146.535 48.818C146.134 49.0327 145.676 49.14 145.163 49.14ZM145.415 47.684C145.798 47.684 146.129 47.6 146.409 47.432C146.698 47.2547 146.922 47.012 147.081 46.704C147.24 46.396 147.319 46.0413 147.319 45.64C147.319 45.2387 147.24 44.884 147.081 44.576C146.922 44.268 146.698 44.03 146.409 43.862C146.129 43.6847 145.798 43.596 145.415 43.596C145.042 43.596 144.71 43.6847 144.421 43.862C144.141 44.03 143.917 44.268 143.749 44.576C143.59 44.884 143.511 45.2387 143.511 45.64C143.511 46.0413 143.59 46.396 143.749 46.704C143.917 47.012 144.141 47.2547 144.421 47.432C144.71 47.6 145.042 47.684 145.415 47.684ZM148.761 49H147.221V47.194L147.487 45.556L147.221 43.932V38.92H148.761V49Z" fill="white"/>
<rect x="183" width="30" height="30" rx="15" fill="#E48500"/>
<path d="M183.711 49V39.2H185.321V49H183.711ZM189.941 49V39.2H191.551V49H189.941ZM184.817 44.66V43.19H190.291V44.66H184.817ZM196.282 49.14C195.676 49.14 195.125 48.986 194.63 48.678C194.145 48.37 193.758 47.9547 193.468 47.432C193.188 46.9 193.048 46.3073 193.048 45.654C193.048 44.9913 193.188 44.3987 193.468 43.876C193.758 43.344 194.145 42.924 194.63 42.616C195.125 42.2987 195.676 42.14 196.282 42.14C196.796 42.14 197.248 42.252 197.64 42.476C198.042 42.6907 198.359 42.9893 198.592 43.372C198.826 43.7547 198.942 44.1887 198.942 44.674V46.606C198.942 47.0913 198.826 47.5253 198.592 47.908C198.368 48.2907 198.056 48.594 197.654 48.818C197.253 49.0327 196.796 49.14 196.282 49.14ZM196.534 47.684C197.104 47.684 197.561 47.4927 197.906 47.11C198.261 46.7273 198.438 46.2373 198.438 45.64C198.438 45.2387 198.359 44.884 198.2 44.576C198.042 44.268 197.818 44.03 197.528 43.862C197.248 43.6847 196.917 43.596 196.534 43.596C196.161 43.596 195.83 43.6847 195.54 43.862C195.26 44.03 195.036 44.268 194.868 44.576C194.71 44.884 194.63 45.2387 194.63 45.64C194.63 46.0413 194.71 46.396 194.868 46.704C195.036 47.012 195.26 47.2547 195.54 47.432C195.83 47.6 196.161 47.684 196.534 47.684ZM198.34 49V47.194L198.606 45.556L198.34 43.932V42.28H199.88V49H198.34ZM201.589 49V42.28H203.129V49H201.589ZM203.129 45.262L202.597 44.996C202.597 44.1467 202.784 43.4607 203.157 42.938C203.54 42.406 204.114 42.14 204.879 42.14C205.215 42.14 205.519 42.2007 205.789 42.322C206.06 42.4433 206.312 42.6393 206.545 42.91L205.537 43.946C205.416 43.8153 205.281 43.722 205.131 43.666C204.982 43.61 204.809 43.582 204.613 43.582C204.184 43.582 203.829 43.7173 203.549 43.988C203.269 44.2587 203.129 44.6833 203.129 45.262ZM209.899 49.14C209.293 49.14 208.742 48.986 208.247 48.678C207.762 48.37 207.375 47.9547 207.085 47.432C206.805 46.9 206.665 46.3073 206.665 45.654C206.665 44.9913 206.805 44.3987 207.085 43.876C207.375 43.344 207.762 42.924 208.247 42.616C208.742 42.2987 209.293 42.14 209.899 42.14C210.413 42.14 210.865 42.252 211.257 42.476C211.659 42.6907 211.976 42.9893 212.209 43.372C212.443 43.7547 212.559 44.1887 212.559 44.674V46.606C212.559 47.0913 212.443 47.5253 212.209 47.908C211.985 48.2907 211.673 48.594 211.271 48.818C210.87 49.0327 210.413 49.14 209.899 49.14ZM210.151 47.684C210.534 47.684 210.865 47.6 211.145 47.432C211.435 47.2547 211.659 47.012 211.817 46.704C211.976 46.396 212.055 46.0413 212.055 45.64C212.055 45.2387 211.976 44.884 211.817 44.576C211.659 44.268 211.435 44.03 211.145 43.862C210.865 43.6847 210.534 43.596 210.151 43.596C209.778 43.596 209.447 43.6847 209.157 43.862C208.877 44.03 208.653 44.268 208.485 44.576C208.327 44.884 208.247 45.2387 208.247 45.64C208.247 46.0413 208.327 46.396 208.485 46.704C208.653 47.012 208.877 47.2547 209.157 47.432C209.447 47.6 209.778 47.684 210.151 47.684ZM213.497 49H211.957V47.194L212.223 45.556L211.957 43.932V38.92H213.497V49Z" fill="white"/>
<rect x="260" width="30" height="30" rx="15" fill="#D7D600"/>
<path d="M249.634 49L253.666 39.2H254.786L258.79 49H257.054L253.918 41.062H254.506L251.342 49H249.634ZM251.622 47.11V45.71H256.816V47.11H251.622ZM261.293 49L258.227 42.28H259.935L262.273 47.754H261.265L263.617 42.28H265.255L262.189 49H261.293ZM269.051 49.14C268.379 49.14 267.773 48.9907 267.231 48.692C266.699 48.384 266.275 47.964 265.957 47.432C265.649 46.9 265.495 46.3027 265.495 45.64C265.495 44.9773 265.649 44.3847 265.957 43.862C266.265 43.33 266.681 42.91 267.203 42.602C267.735 42.294 268.323 42.14 268.967 42.14C269.593 42.14 270.143 42.2847 270.619 42.574C271.105 42.8633 271.483 43.26 271.753 43.764C272.033 44.268 272.173 44.842 272.173 45.486C272.173 45.598 272.164 45.7147 272.145 45.836C272.136 45.948 272.117 46.074 272.089 46.214H266.573V44.954H271.291L270.717 45.458C270.699 45.0473 270.619 44.702 270.479 44.422C270.339 44.142 270.139 43.9273 269.877 43.778C269.625 43.6287 269.313 43.554 268.939 43.554C268.547 43.554 268.207 43.638 267.917 43.806C267.628 43.974 267.404 44.212 267.245 44.52C267.087 44.8187 267.007 45.178 267.007 45.598C267.007 46.018 267.091 46.3867 267.259 46.704C267.427 47.0213 267.665 47.2687 267.973 47.446C268.281 47.614 268.636 47.698 269.037 47.698C269.383 47.698 269.7 47.6373 269.989 47.516C270.288 47.3947 270.54 47.2173 270.745 46.984L271.725 47.978C271.399 48.3607 271.002 48.65 270.535 48.846C270.069 49.042 269.574 49.14 269.051 49.14ZM273.408 49V42.28H274.948V49H273.408ZM274.948 45.262L274.416 44.996C274.416 44.1467 274.602 43.4607 274.976 42.938C275.358 42.406 275.932 42.14 276.698 42.14C277.034 42.14 277.337 42.2007 277.608 42.322C277.878 42.4433 278.13 42.6393 278.364 42.91L277.356 43.946C277.234 43.8153 277.099 43.722 276.95 43.666C276.8 43.61 276.628 43.582 276.432 43.582C276.002 43.582 275.648 43.7173 275.368 43.988C275.088 44.2587 274.948 44.6833 274.948 45.262ZM281.718 49.14C281.111 49.14 280.56 48.986 280.066 48.678C279.58 48.37 279.193 47.9547 278.904 47.432C278.624 46.9 278.484 46.3073 278.484 45.654C278.484 44.9913 278.624 44.3987 278.904 43.876C279.193 43.344 279.58 42.924 280.066 42.616C280.56 42.2987 281.111 42.14 281.718 42.14C282.231 42.14 282.684 42.252 283.076 42.476C283.477 42.6907 283.794 42.9893 284.028 43.372C284.261 43.7547 284.378 44.1887 284.378 44.674V46.606C284.378 47.0913 284.261 47.5253 284.028 47.908C283.804 48.2907 283.491 48.594 283.09 48.818C282.688 49.0327 282.231 49.14 281.718 49.14ZM281.97 47.684C282.539 47.684 282.996 47.4927 283.342 47.11C283.696 46.7273 283.874 46.2373 283.874 45.64C283.874 45.2387 283.794 44.884 283.636 44.576C283.477 44.268 283.253 44.03 282.964 43.862C282.684 43.6847 282.352 43.596 281.97 43.596C281.596 43.596 281.265 43.6847 280.976 43.862C280.696 44.03 280.472 44.268 280.304 44.576C280.145 44.884 280.066 45.2387 280.066 45.64C280.066 46.0413 280.145 46.396 280.304 46.704C280.472 47.012 280.696 47.2547 280.976 47.432C281.265 47.6 281.596 47.684 281.97 47.684ZM283.776 49V47.194L284.042 45.556L283.776 43.932V42.28H285.316V49H283.776ZM289.825 51.94C289.116 51.94 288.495 51.8093 287.963 51.548C287.431 51.296 287.002 50.9367 286.675 50.47L287.683 49.462C287.954 49.798 288.262 50.05 288.607 50.218C288.952 50.386 289.368 50.47 289.853 50.47C290.46 50.47 290.94 50.3113 291.295 49.994C291.65 49.686 291.827 49.2613 291.827 48.72V47.068L292.093 45.584L291.827 44.086V42.28H293.367V48.72C293.367 49.364 293.218 49.924 292.919 50.4C292.62 50.8853 292.205 51.2633 291.673 51.534C291.141 51.8047 290.525 51.94 289.825 51.94ZM289.755 48.86C289.158 48.86 288.616 48.7153 288.131 48.426C287.655 48.1273 287.277 47.7213 286.997 47.208C286.726 46.6947 286.591 46.1207 286.591 45.486C286.591 44.8513 286.726 44.282 286.997 43.778C287.277 43.274 287.655 42.8773 288.131 42.588C288.616 42.2893 289.158 42.14 289.755 42.14C290.287 42.14 290.754 42.2473 291.155 42.462C291.556 42.6767 291.869 42.9753 292.093 43.358C292.317 43.7313 292.429 44.17 292.429 44.674V46.326C292.429 46.8207 292.312 47.2593 292.079 47.642C291.855 48.0247 291.542 48.3233 291.141 48.538C290.74 48.7527 290.278 48.86 289.755 48.86ZM290.063 47.404C290.436 47.404 290.763 47.3247 291.043 47.166C291.323 47.0073 291.538 46.788 291.687 46.508C291.846 46.2187 291.925 45.8827 291.925 45.5C291.925 45.1173 291.846 44.786 291.687 44.506C291.538 44.2167 291.323 43.9927 291.043 43.834C290.763 43.6753 290.436 43.596 290.063 43.596C289.69 43.596 289.358 43.6753 289.069 43.834C288.789 43.9927 288.57 44.2167 288.411 44.506C288.252 44.786 288.173 45.1173 288.173 45.5C288.173 45.8733 288.252 46.2047 288.411 46.494C288.57 46.7833 288.789 47.0073 289.069 47.166C289.358 47.3247 289.69 47.404 290.063 47.404ZM298.2 49.14C297.528 49.14 296.921 48.9907 296.38 48.692C295.848 48.384 295.423 47.964 295.106 47.432C294.798 46.9 294.644 46.3027 294.644 45.64C294.644 44.9773 294.798 44.3847 295.106 43.862C295.414 43.33 295.829 42.91 296.352 42.602C296.884 42.294 297.472 42.14 298.116 42.14C298.741 42.14 299.292 42.2847 299.768 42.574C300.253 42.8633 300.631 43.26 300.902 43.764C301.182 44.268 301.322 44.842 301.322 45.486C301.322 45.598 301.312 45.7147 301.294 45.836C301.284 45.948 301.266 46.074 301.238 46.214H295.722V44.954H300.44L299.866 45.458C299.847 45.0473 299.768 44.702 299.628 44.422C299.488 44.142 299.287 43.9273 299.026 43.778C298.774 43.6287 298.461 43.554 298.088 43.554C297.696 43.554 297.355 43.638 297.066 43.806C296.776 43.974 296.552 44.212 296.394 44.52C296.235 44.8187 296.156 45.178 296.156 45.598C296.156 46.018 296.24 46.3867 296.408 46.704C296.576 47.0213 296.814 47.2687 297.122 47.446C297.43 47.614 297.784 47.698 298.186 47.698C298.531 47.698 298.848 47.6373 299.138 47.516C299.436 47.3947 299.688 47.2173 299.894 46.984L300.874 47.978C300.547 48.3607 300.15 48.65 299.684 48.846C299.217 49.042 298.722 49.14 298.2 49.14Z" fill="white"/>
<rect x="338" width="30" height="30" rx="15" fill="#92D700"/>
<path d="M338.798 49V39.2H340.408V49H338.798ZM339.904 49V47.53H345.392V49H339.904ZM339.904 44.702V43.288H344.916V44.702H339.904ZM339.904 40.67V39.2H345.322V40.67H339.904ZM349.551 49.14C348.944 49.14 348.393 48.986 347.899 48.678C347.413 48.37 347.026 47.9547 346.737 47.432C346.457 46.9 346.317 46.3073 346.317 45.654C346.317 44.9913 346.457 44.3987 346.737 43.876C347.026 43.344 347.413 42.924 347.899 42.616C348.393 42.2987 348.944 42.14 349.551 42.14C350.064 42.14 350.517 42.252 350.909 42.476C351.31 42.6907 351.627 42.9893 351.861 43.372C352.094 43.7547 352.211 44.1887 352.211 44.674V46.606C352.211 47.0913 352.094 47.5253 351.861 47.908C351.637 48.2907 351.324 48.594 350.923 48.818C350.521 49.0327 350.064 49.14 349.551 49.14ZM349.803 47.684C350.372 47.684 350.829 47.4927 351.175 47.11C351.529 46.7273 351.707 46.2373 351.707 45.64C351.707 45.2387 351.627 44.884 351.469 44.576C351.31 44.268 351.086 44.03 350.797 43.862C350.517 43.6847 350.185 43.596 349.803 43.596C349.429 43.596 349.098 43.6847 348.809 43.862C348.529 44.03 348.305 44.268 348.137 44.576C347.978 44.884 347.899 45.2387 347.899 45.64C347.899 46.0413 347.978 46.396 348.137 46.704C348.305 47.012 348.529 47.2547 348.809 47.432C349.098 47.6 349.429 47.684 349.803 47.684ZM351.609 49V47.194L351.875 45.556L351.609 43.932V42.28H353.149V49H351.609ZM357.056 49.14C356.683 49.14 356.323 49.0933 355.978 49C355.633 48.8973 355.315 48.7573 355.026 48.58C354.737 48.3933 354.485 48.1693 354.27 47.908L355.25 46.928C355.483 47.1987 355.749 47.404 356.048 47.544C356.356 47.6747 356.701 47.74 357.084 47.74C357.429 47.74 357.691 47.6887 357.868 47.586C358.045 47.4833 358.134 47.334 358.134 47.138C358.134 46.9327 358.05 46.774 357.882 46.662C357.714 46.55 357.495 46.4567 357.224 46.382C356.963 46.298 356.683 46.214 356.384 46.13C356.095 46.046 355.815 45.934 355.544 45.794C355.283 45.6447 355.068 45.444 354.9 45.192C354.732 44.94 354.648 44.6133 354.648 44.212C354.648 43.7827 354.746 43.414 354.942 43.106C355.147 42.798 355.432 42.56 355.796 42.392C356.169 42.224 356.613 42.14 357.126 42.14C357.667 42.14 358.143 42.238 358.554 42.434C358.974 42.6207 359.324 42.9053 359.604 43.288L358.624 44.268C358.428 44.0253 358.204 43.8433 357.952 43.722C357.7 43.6007 357.411 43.54 357.084 43.54C356.776 43.54 356.538 43.5867 356.37 43.68C356.202 43.7733 356.118 43.9087 356.118 44.086C356.118 44.2727 356.202 44.4173 356.37 44.52C356.538 44.6227 356.753 44.7113 357.014 44.786C357.285 44.8607 357.565 44.9447 357.854 45.038C358.153 45.122 358.433 45.2433 358.694 45.402C358.965 45.5513 359.184 45.7567 359.352 46.018C359.52 46.27 359.604 46.6013 359.604 47.012C359.604 47.6653 359.375 48.1833 358.918 48.566C358.461 48.9487 357.84 49.14 357.056 49.14ZM363.044 49.07L360.174 42.28H361.868L363.828 47.264H363.338L365.41 42.28H367.118L363.996 49.07H363.044ZM361.042 51.8L363.128 47.502L363.996 49.07L362.75 51.8H361.042Z" fill="white"/>
<rect x="417" width="30" height="30" rx="15" fill="#00C947"/>
<path d="M405.769 49L401.807 39.2H403.557L406.651 47.138H406.035L409.157 39.2H410.879L406.889 49H405.769ZM413.841 49.14C413.169 49.14 412.563 48.9907 412.021 48.692C411.489 48.384 411.065 47.964 410.747 47.432C410.439 46.9 410.285 46.3027 410.285 45.64C410.285 44.9773 410.439 44.3847 410.747 43.862C411.055 43.33 411.471 42.91 411.993 42.602C412.525 42.294 413.113 42.14 413.757 42.14C414.383 42.14 414.933 42.2847 415.409 42.574C415.895 42.8633 416.273 43.26 416.543 43.764C416.823 44.268 416.963 44.842 416.963 45.486C416.963 45.598 416.954 45.7147 416.935 45.836C416.926 45.948 416.907 46.074 416.879 46.214H411.363V44.954H416.081L415.507 45.458C415.489 45.0473 415.409 44.702 415.269 44.422C415.129 44.142 414.929 43.9273 414.667 43.778C414.415 43.6287 414.103 43.554 413.729 43.554C413.337 43.554 412.997 43.638 412.707 43.806C412.418 43.974 412.194 44.212 412.035 44.52C411.877 44.8187 411.797 45.178 411.797 45.598C411.797 46.018 411.881 46.3867 412.049 46.704C412.217 47.0213 412.455 47.2687 412.763 47.446C413.071 47.614 413.426 47.698 413.827 47.698C414.173 47.698 414.49 47.6373 414.779 47.516C415.078 47.3947 415.33 47.2173 415.535 46.984L416.515 47.978C416.189 48.3607 415.792 48.65 415.325 48.846C414.859 49.042 414.364 49.14 413.841 49.14ZM418.198 49V42.28H419.738V49H418.198ZM419.738 45.262L419.206 44.996C419.206 44.1467 419.392 43.4607 419.766 42.938C420.148 42.406 420.722 42.14 421.488 42.14C421.824 42.14 422.127 42.2007 422.398 42.322C422.668 42.4433 422.92 42.6393 423.154 42.91L422.146 43.946C422.024 43.8153 421.889 43.722 421.74 43.666C421.59 43.61 421.418 43.582 421.222 43.582C420.792 43.582 420.438 43.7173 420.158 43.988C419.878 44.2587 419.738 44.6833 419.738 45.262ZM425.973 49.07L423.103 42.28H424.797L426.757 47.264H426.267L428.339 42.28H430.047L426.925 49.07H425.973ZM423.971 51.8L426.057 47.502L426.925 49.07L425.679 51.8H423.971ZM434.062 49V39.2H435.672V49H434.062ZM435.168 49V47.53H440.656V49H435.168ZM435.168 44.702V43.288H440.18V44.702H435.168ZM435.168 40.67V39.2H440.586V40.67H435.168ZM444.814 49.14C444.208 49.14 443.657 48.986 443.162 48.678C442.677 48.37 442.29 47.9547 442 47.432C441.72 46.9 441.58 46.3073 441.58 45.654C441.58 44.9913 441.72 44.3987 442 43.876C442.29 43.344 442.677 42.924 443.162 42.616C443.657 42.2987 444.208 42.14 444.814 42.14C445.328 42.14 445.78 42.252 446.172 42.476C446.574 42.6907 446.891 42.9893 447.124 43.372C447.358 43.7547 447.474 44.1887 447.474 44.674V46.606C447.474 47.0913 447.358 47.5253 447.124 47.908C446.9 48.2907 446.588 48.594 446.186 48.818C445.785 49.0327 445.328 49.14 444.814 49.14ZM445.066 47.684C445.636 47.684 446.093 47.4927 446.438 47.11C446.793 46.7273 446.97 46.2373 446.97 45.64C446.97 45.2387 446.891 44.884 446.732 44.576C446.574 44.268 446.35 44.03 446.06 43.862C445.78 43.6847 445.449 43.596 445.066 43.596C444.693 43.596 444.362 43.6847 444.072 43.862C443.792 44.03 443.568 44.268 443.4 44.576C443.242 44.884 443.162 45.2387 443.162 45.64C443.162 46.0413 443.242 46.396 443.4 46.704C443.568 47.012 443.792 47.2547 444.072 47.432C444.362 47.6 444.693 47.684 445.066 47.684ZM446.872 49V47.194L447.138 45.556L446.872 43.932V42.28H448.412V49H446.872ZM452.32 49.14C451.946 49.14 451.587 49.0933 451.242 49C450.896 48.8973 450.579 48.7573 450.29 48.58C450 48.3933 449.748 48.1693 449.534 47.908L450.514 46.928C450.747 47.1987 451.013 47.404 451.312 47.544C451.62 47.6747 451.965 47.74 452.348 47.74C452.693 47.74 452.954 47.6887 453.132 47.586C453.309 47.4833 453.398 47.334 453.398 47.138C453.398 46.9327 453.314 46.774 453.146 46.662C452.978 46.55 452.758 46.4567 452.488 46.382C452.226 46.298 451.946 46.214 451.648 46.13C451.358 46.046 451.078 45.934 450.808 45.794C450.546 45.6447 450.332 45.444 450.164 45.192C449.996 44.94 449.912 44.6133 449.912 44.212C449.912 43.7827 450.01 43.414 450.206 43.106C450.411 42.798 450.696 42.56 451.06 42.392C451.433 42.224 451.876 42.14 452.39 42.14C452.931 42.14 453.407 42.238 453.818 42.434C454.238 42.6207 454.588 42.9053 454.868 43.288L453.888 44.268C453.692 44.0253 453.468 43.8433 453.216 43.722C452.964 43.6007 452.674 43.54 452.348 43.54C452.04 43.54 451.802 43.5867 451.634 43.68C451.466 43.7733 451.382 43.9087 451.382 44.086C451.382 44.2727 451.466 44.4173 451.634 44.52C451.802 44.6227 452.016 44.7113 452.278 44.786C452.548 44.8607 452.828 44.9447 453.118 45.038C453.416 45.122 453.696 45.2433 453.958 45.402C454.228 45.5513 454.448 45.7567 454.616 46.018C454.784 46.27 454.868 46.6013 454.868 47.012C454.868 47.6653 454.639 48.1833 454.182 48.566C453.724 48.9487 453.104 49.14 452.32 49.14ZM458.307 49.07L455.437 42.28H457.131L459.091 47.264H458.601L460.673 42.28H462.381L459.259 49.07H458.307ZM456.305 51.8L458.391 47.502L459.259 49.07L458.013 51.8H456.305Z" fill="white"/>
</svg>
