<svg width="457" height="55" viewBox="0 0 457 55" fill="none" xmlns="http://www.w3.org/2000/svg">
<rect x="13" width="30" height="30" rx="15" fill="#474747"/>
<path d="M1.41173 47V38.672H2.53973V47H1.41173ZM4.31348 47V41.3H5.39348V47H4.31348ZM8.16548 47V43.556C8.16548 43.132 8.03348 42.8 7.76948 42.56C7.51348 42.312 7.18948 42.188 6.79748 42.188C6.53348 42.188 6.29748 42.244 6.08948 42.356C5.88148 42.468 5.71348 42.624 5.58548 42.824C5.45748 43.024 5.39348 43.264 5.39348 43.544L4.94948 43.328C4.94948 42.896 5.04148 42.52 5.22548 42.2C5.41748 41.88 5.67748 41.632 6.00548 41.456C6.33348 41.272 6.70148 41.18 7.10948 41.18C7.50948 41.18 7.86948 41.268 8.18948 41.444C8.51748 41.62 8.77348 41.868 8.95748 42.188C9.14948 42.508 9.24548 42.888 9.24548 43.328V47H8.16548ZM12.0175 47V43.556C12.0175 43.132 11.8855 42.8 11.6215 42.56C11.3655 42.312 11.0455 42.188 10.6615 42.188C10.3975 42.188 10.1575 42.244 9.94148 42.356C9.73348 42.468 9.56548 42.624 9.43748 42.824C9.30948 43.024 9.24548 43.264 9.24548 43.544L8.63348 43.328C8.65748 42.888 8.77348 42.512 8.98148 42.2C9.19748 41.88 9.47348 41.632 9.80948 41.456C10.1455 41.272 10.5135 41.18 10.9135 41.18C11.3295 41.18 11.7015 41.268 12.0295 41.444C12.3575 41.62 12.6175 41.868 12.8095 42.188C13.0095 42.508 13.1095 42.892 13.1095 43.34V47H12.0175ZM17.5791 47.12C17.1471 47.12 16.7551 47.032 16.4031 46.856C16.0591 46.672 15.7831 46.42 15.5751 46.1C15.3671 45.78 15.2511 45.416 15.2271 45.008V43.292C15.2511 42.876 15.3671 42.512 15.5751 42.2C15.7911 41.88 16.0711 41.632 16.4151 41.456C16.7671 41.272 17.1551 41.18 17.5791 41.18C18.0991 41.18 18.5671 41.312 18.9831 41.576C19.4071 41.84 19.7391 42.196 19.9791 42.644C20.2191 43.092 20.3391 43.596 20.3391 44.156C20.3391 44.716 20.2191 45.22 19.9791 45.668C19.7391 46.116 19.4071 46.472 18.9831 46.736C18.5671 46.992 18.0991 47.12 17.5791 47.12ZM17.3991 46.1C17.7591 46.1 18.0751 46.016 18.3471 45.848C18.6191 45.68 18.8351 45.452 18.9951 45.164C19.1551 44.868 19.2351 44.528 19.2351 44.144C19.2351 43.768 19.1551 43.432 18.9951 43.136C18.8351 42.84 18.6191 42.612 18.3471 42.452C18.0751 42.284 17.7631 42.2 17.4111 42.2C17.0511 42.2 16.7351 42.284 16.4631 42.452C16.1911 42.612 15.9791 42.84 15.8271 43.136C15.6751 43.432 15.5991 43.772 15.5991 44.156C15.5991 44.532 15.6711 44.868 15.8151 45.164C15.9671 45.452 16.1791 45.68 16.4511 45.848C16.7311 46.016 17.0471 46.1 17.3991 46.1ZM14.5791 49.388V41.3H15.6591V42.8L15.4551 44.18L15.6591 45.572V49.388H14.5791ZM24.1675 47.12C23.6075 47.12 23.1035 46.988 22.6555 46.724C22.2075 46.46 21.8515 46.104 21.5875 45.656C21.3235 45.2 21.1915 44.692 21.1915 44.132C21.1915 43.58 21.3235 43.084 21.5875 42.644C21.8515 42.196 22.2075 41.84 22.6555 41.576C23.1035 41.312 23.6075 41.18 24.1675 41.18C24.7195 41.18 25.2195 41.312 25.6675 41.576C26.1235 41.832 26.4835 42.184 26.7475 42.632C27.0115 43.08 27.1435 43.58 27.1435 44.132C27.1435 44.692 27.0115 45.2 26.7475 45.656C26.4835 46.104 26.1235 46.46 25.6675 46.724C25.2195 46.988 24.7195 47.12 24.1675 47.12ZM24.1675 46.076C24.5275 46.076 24.8475 45.992 25.1275 45.824C25.4075 45.656 25.6275 45.428 25.7875 45.14C25.9475 44.844 26.0275 44.508 26.0275 44.132C26.0275 43.764 25.9435 43.436 25.7755 43.148C25.6155 42.86 25.3955 42.636 25.1155 42.476C24.8435 42.308 24.5275 42.224 24.1675 42.224C23.8075 42.224 23.4875 42.308 23.2075 42.476C22.9275 42.636 22.7075 42.86 22.5475 43.148C22.3875 43.436 22.3075 43.764 22.3075 44.132C22.3075 44.508 22.3875 44.844 22.5475 45.14C22.7075 45.428 22.9275 45.656 23.2075 45.824C23.4875 45.992 23.8075 46.076 24.1675 46.076ZM30.1724 47.12C29.8524 47.12 29.5484 47.08 29.2604 47C28.9804 46.912 28.7204 46.792 28.4804 46.64C28.2404 46.48 28.0324 46.292 27.8564 46.076L28.5524 45.38C28.7604 45.636 29.0004 45.828 29.2724 45.956C29.5444 46.076 29.8484 46.136 30.1844 46.136C30.5204 46.136 30.7804 46.08 30.9644 45.968C31.1484 45.848 31.2404 45.684 31.2404 45.476C31.2404 45.268 31.1644 45.108 31.0124 44.996C30.8684 44.876 30.6804 44.78 30.4484 44.708C30.2164 44.628 29.9684 44.552 29.7044 44.48C29.4484 44.4 29.2044 44.3 28.9724 44.18C28.7404 44.06 28.5484 43.896 28.3964 43.688C28.2524 43.48 28.1804 43.204 28.1804 42.86C28.1804 42.516 28.2644 42.22 28.4324 41.972C28.6004 41.716 28.8324 41.52 29.1284 41.384C29.4324 41.248 29.7964 41.18 30.2204 41.18C30.6684 41.18 31.0644 41.26 31.4084 41.42C31.7604 41.572 32.0484 41.804 32.2724 42.116L31.5764 42.812C31.4164 42.604 31.2164 42.444 30.9764 42.332C30.7444 42.22 30.4804 42.164 30.1844 42.164C29.8724 42.164 29.6324 42.22 29.4644 42.332C29.3044 42.436 29.2244 42.584 29.2244 42.776C29.2244 42.968 29.2964 43.116 29.4404 43.22C29.5844 43.324 29.7724 43.412 30.0044 43.484C30.2444 43.556 30.4924 43.632 30.7484 43.712C31.0044 43.784 31.2484 43.884 31.4804 44.012C31.7124 44.14 31.9004 44.312 32.0444 44.528C32.1964 44.744 32.2724 45.028 32.2724 45.38C32.2724 45.916 32.0804 46.34 31.6964 46.652C31.3204 46.964 30.8124 47.12 30.1724 47.12ZM35.2935 47.12C34.9735 47.12 34.6695 47.08 34.3815 47C34.1015 46.912 33.8415 46.792 33.6015 46.64C33.3615 46.48 33.1535 46.292 32.9775 46.076L33.6735 45.38C33.8815 45.636 34.1215 45.828 34.3935 45.956C34.6655 46.076 34.9695 46.136 35.3055 46.136C35.6415 46.136 35.9015 46.08 36.0855 45.968C36.2695 45.848 36.3615 45.684 36.3615 45.476C36.3615 45.268 36.2855 45.108 36.1335 44.996C35.9895 44.876 35.8015 44.78 35.5695 44.708C35.3375 44.628 35.0895 44.552 34.8255 44.48C34.5695 44.4 34.3255 44.3 34.0935 44.18C33.8615 44.06 33.6695 43.896 33.5175 43.688C33.3735 43.48 33.3015 43.204 33.3015 42.86C33.3015 42.516 33.3855 42.22 33.5535 41.972C33.7215 41.716 33.9535 41.52 34.2495 41.384C34.5535 41.248 34.9175 41.18 35.3415 41.18C35.7895 41.18 36.1855 41.26 36.5295 41.42C36.8815 41.572 37.1695 41.804 37.3935 42.116L36.6975 42.812C36.5375 42.604 36.3375 42.444 36.0975 42.332C35.8655 42.22 35.6015 42.164 35.3055 42.164C34.9935 42.164 34.7535 42.22 34.5855 42.332C34.4255 42.436 34.3455 42.584 34.3455 42.776C34.3455 42.968 34.4175 43.116 34.5615 43.22C34.7055 43.324 34.8935 43.412 35.1255 43.484C35.3655 43.556 35.6135 43.632 35.8695 43.712C36.1255 43.784 36.3695 43.884 36.6015 44.012C36.8335 44.14 37.0215 44.312 37.1655 44.528C37.3175 44.744 37.3935 45.028 37.3935 45.38C37.3935 45.916 37.2015 46.34 36.8175 46.652C36.4415 46.964 35.9335 47.12 35.2935 47.12ZM38.6145 47V41.3H39.6945V47H38.6145ZM39.1545 40.16C38.9545 40.16 38.7905 40.096 38.6625 39.968C38.5345 39.832 38.4705 39.664 38.4705 39.464C38.4705 39.272 38.5345 39.112 38.6625 38.984C38.7905 38.848 38.9545 38.78 39.1545 38.78C39.3545 38.78 39.5185 38.848 39.6465 38.984C39.7745 39.112 39.8385 39.272 39.8385 39.464C39.8385 39.664 39.7745 39.832 39.6465 39.968C39.5185 40.096 39.3545 40.16 39.1545 40.16ZM44.2861 47.12C43.8541 47.12 43.4621 47.032 43.1101 46.856C42.7661 46.672 42.4901 46.42 42.2821 46.1C42.0741 45.78 41.9581 45.416 41.9341 45.008V43.292C41.9581 42.876 42.0741 42.512 42.2821 42.2C42.4981 41.88 42.7781 41.632 43.1221 41.456C43.4741 41.272 43.8621 41.18 44.2861 41.18C44.8061 41.18 45.2741 41.312 45.6901 41.576C46.1141 41.84 46.4461 42.196 46.6861 42.644C46.9261 43.092 47.0461 43.596 47.0461 44.156C47.0461 44.716 46.9261 45.22 46.6861 45.668C46.4461 46.116 46.1141 46.472 45.6901 46.736C45.2741 46.992 44.8061 47.12 44.2861 47.12ZM44.1061 46.1C44.4661 46.1 44.7821 46.016 45.0541 45.848C45.3261 45.68 45.5421 45.452 45.7021 45.164C45.8621 44.868 45.9421 44.528 45.9421 44.144C45.9421 43.768 45.8621 43.432 45.7021 43.136C45.5421 42.84 45.3261 42.612 45.0541 42.452C44.7821 42.284 44.4701 42.2 44.1181 42.2C43.7581 42.2 43.4421 42.284 43.1701 42.452C42.8981 42.612 42.6861 42.84 42.5341 43.136C42.3821 43.432 42.3061 43.772 42.3061 44.156C42.3061 44.532 42.3781 44.868 42.5221 45.164C42.6741 45.452 42.8861 45.68 43.1581 45.848C43.4381 46.016 43.7541 46.1 44.1061 46.1ZM41.2861 47V38.432H42.3661V42.692L42.1621 44.072L42.3661 45.464V47H41.2861ZM48.2705 47V38.432H49.3505V47H48.2705ZM53.5707 47.12C53.0027 47.12 52.4907 46.992 52.0347 46.736C51.5787 46.472 51.2187 46.116 50.9547 45.668C50.6907 45.22 50.5587 44.712 50.5587 44.144C50.5587 43.584 50.6867 43.08 50.9427 42.632C51.2067 42.184 51.5587 41.832 51.9987 41.576C52.4467 41.312 52.9467 41.18 53.4987 41.18C54.0267 41.18 54.4907 41.3 54.8907 41.54C55.2987 41.78 55.6147 42.112 55.8387 42.536C56.0707 42.96 56.1867 43.44 56.1867 43.976C56.1867 44.056 56.1827 44.144 56.1747 44.24C56.1667 44.328 56.1507 44.432 56.1267 44.552H51.3147V43.652H55.5507L55.1547 44C55.1547 43.616 55.0867 43.292 54.9507 43.028C54.8147 42.756 54.6227 42.548 54.3747 42.404C54.1267 42.252 53.8267 42.176 53.4747 42.176C53.1067 42.176 52.7827 42.256 52.5027 42.416C52.2227 42.576 52.0067 42.8 51.8547 43.088C51.7027 43.376 51.6267 43.716 51.6267 44.108C51.6267 44.508 51.7067 44.86 51.8667 45.164C52.0267 45.46 52.2547 45.692 52.5507 45.86C52.8467 46.02 53.1867 46.1 53.5707 46.1C53.8907 46.1 54.1827 46.044 54.4467 45.932C54.7187 45.82 54.9507 45.652 55.1427 45.428L55.8387 46.136C55.5667 46.456 55.2307 46.7 54.8307 46.868C54.4387 47.036 54.0187 47.12 53.5707 47.12Z" fill="white"/>
<rect x="93" width="30" height="30" rx="15" fill="#C70000"/>
<path d="M85.2314 47L81.8954 38.672H83.1194L85.8674 45.716H85.4234L88.1954 38.672H89.4074L86.0474 47H85.2314ZM92.0336 47.12C91.4656 47.12 90.9536 46.992 90.4976 46.736C90.0416 46.472 89.6816 46.116 89.4176 45.668C89.1536 45.22 89.0216 44.712 89.0216 44.144C89.0216 43.584 89.1496 43.08 89.4056 42.632C89.6696 42.184 90.0216 41.832 90.4616 41.576C90.9096 41.312 91.4096 41.18 91.9616 41.18C92.4896 41.18 92.9536 41.3 93.3536 41.54C93.7616 41.78 94.0776 42.112 94.3016 42.536C94.5336 42.96 94.6496 43.44 94.6496 43.976C94.6496 44.056 94.6456 44.144 94.6376 44.24C94.6296 44.328 94.6136 44.432 94.5896 44.552H89.7776V43.652H94.0136L93.6176 44C93.6176 43.616 93.5496 43.292 93.4136 43.028C93.2776 42.756 93.0856 42.548 92.8376 42.404C92.5896 42.252 92.2896 42.176 91.9376 42.176C91.5696 42.176 91.2456 42.256 90.9656 42.416C90.6856 42.576 90.4696 42.8 90.3176 43.088C90.1656 43.376 90.0896 43.716 90.0896 44.108C90.0896 44.508 90.1696 44.86 90.3296 45.164C90.4896 45.46 90.7176 45.692 91.0136 45.86C91.3096 46.02 91.6496 46.1 92.0336 46.1C92.3536 46.1 92.6456 46.044 92.9096 45.932C93.1816 45.82 93.4136 45.652 93.6056 45.428L94.3016 46.136C94.0296 46.456 93.6936 46.7 93.2936 46.868C92.9016 47.036 92.4816 47.12 92.0336 47.12ZM95.8272 47V41.3H96.9072V47H95.8272ZM96.9072 43.748L96.4992 43.568C96.4992 42.84 96.6672 42.26 97.0032 41.828C97.3392 41.396 97.8232 41.18 98.4552 41.18C98.7432 41.18 99.0032 41.232 99.2352 41.336C99.4672 41.432 99.6832 41.596 99.8832 41.828L99.1752 42.56C99.0552 42.432 98.9232 42.34 98.7792 42.284C98.6352 42.228 98.4672 42.2 98.2752 42.2C97.8752 42.2 97.5472 42.328 97.2912 42.584C97.0352 42.84 96.9072 43.228 96.9072 43.748ZM102.41 47.048L99.9381 41.3H101.138L102.974 45.8H102.59L104.522 41.3H105.722L103.058 47.048H102.41ZM100.778 49.388L102.458 45.944L103.058 47.048L101.978 49.388H100.778ZM109.39 47V38.672H110.518V47H109.39ZM114.766 47V38.672H115.894V47H114.766ZM110.158 43.208V42.176H115.042V43.208H110.158ZM120.095 47.12C119.575 47.12 119.103 46.992 118.679 46.736C118.255 46.472 117.919 46.116 117.671 45.668C117.431 45.22 117.311 44.716 117.311 44.156C117.311 43.596 117.431 43.092 117.671 42.644C117.919 42.196 118.251 41.84 118.667 41.576C119.091 41.312 119.567 41.18 120.095 41.18C120.527 41.18 120.911 41.272 121.247 41.456C121.591 41.632 121.867 41.88 122.075 42.2C122.283 42.512 122.399 42.876 122.423 43.292V45.008C122.399 45.416 122.283 45.78 122.075 46.1C121.875 46.42 121.603 46.672 121.259 46.856C120.923 47.032 120.535 47.12 120.095 47.12ZM120.275 46.1C120.811 46.1 121.243 45.92 121.571 45.56C121.899 45.192 122.063 44.724 122.063 44.156C122.063 43.764 121.987 43.424 121.835 43.136C121.691 42.84 121.483 42.612 121.211 42.452C120.939 42.284 120.623 42.2 120.263 42.2C119.903 42.2 119.583 42.284 119.303 42.452C119.031 42.62 118.815 42.852 118.655 43.148C118.503 43.436 118.427 43.768 118.427 44.144C118.427 44.528 118.503 44.868 118.655 45.164C118.815 45.452 119.035 45.68 119.315 45.848C119.595 46.016 119.915 46.1 120.275 46.1ZM121.991 47V45.464L122.195 44.072L121.991 42.692V41.3H123.083V47H121.991ZM124.655 47V41.3H125.735V47H124.655ZM125.735 43.748L125.327 43.568C125.327 42.84 125.495 42.26 125.831 41.828C126.167 41.396 126.651 41.18 127.283 41.18C127.571 41.18 127.831 41.232 128.063 41.336C128.295 41.432 128.511 41.596 128.711 41.828L128.003 42.56C127.883 42.432 127.751 42.34 127.607 42.284C127.463 42.228 127.295 42.2 127.103 42.2C126.703 42.2 126.375 42.328 126.119 42.584C125.863 42.84 125.735 43.228 125.735 43.748ZM131.696 47.12C131.168 47.12 130.696 46.992 130.28 46.736C129.864 46.472 129.532 46.116 129.284 45.668C129.044 45.22 128.924 44.716 128.924 44.156C128.924 43.596 129.044 43.092 129.284 42.644C129.532 42.196 129.864 41.84 130.28 41.576C130.696 41.312 131.168 41.18 131.696 41.18C132.12 41.18 132.504 41.272 132.848 41.456C133.192 41.632 133.468 41.88 133.676 42.2C133.892 42.512 134.012 42.876 134.036 43.292V45.008C134.012 45.416 133.896 45.78 133.688 46.1C133.48 46.42 133.204 46.672 132.86 46.856C132.516 47.032 132.128 47.12 131.696 47.12ZM131.876 46.1C132.236 46.1 132.548 46.016 132.812 45.848C133.084 45.68 133.296 45.452 133.448 45.164C133.6 44.868 133.676 44.532 133.676 44.156C133.676 43.764 133.596 43.424 133.436 43.136C133.284 42.848 133.072 42.62 132.8 42.452C132.536 42.284 132.224 42.2 131.864 42.2C131.504 42.2 131.188 42.284 130.916 42.452C130.644 42.62 130.428 42.852 130.268 43.148C130.116 43.436 130.04 43.768 130.04 44.144C130.04 44.528 130.116 44.868 130.268 45.164C130.428 45.452 130.644 45.68 130.916 45.848C131.196 46.016 131.516 46.1 131.876 46.1ZM134.696 47H133.604V45.464L133.808 44.072L133.604 42.692V38.432H134.696V47Z" fill="white"/>
<rect x="173" width="30" height="30" rx="15" fill="#E48500"/>
<path d="M175.949 47V38.672H177.077V47H175.949ZM181.325 47V38.672H182.453V47H181.325ZM176.717 43.208V42.176H181.601V43.208H176.717ZM186.654 47.12C186.134 47.12 185.662 46.992 185.238 46.736C184.814 46.472 184.478 46.116 184.229 45.668C183.99 45.22 183.87 44.716 183.87 44.156C183.87 43.596 183.99 43.092 184.229 42.644C184.478 42.196 184.81 41.84 185.226 41.576C185.65 41.312 186.126 41.18 186.654 41.18C187.086 41.18 187.47 41.272 187.806 41.456C188.15 41.632 188.426 41.88 188.634 42.2C188.842 42.512 188.958 42.876 188.982 43.292V45.008C188.958 45.416 188.842 45.78 188.634 46.1C188.434 46.42 188.162 46.672 187.818 46.856C187.482 47.032 187.094 47.12 186.654 47.12ZM186.834 46.1C187.37 46.1 187.802 45.92 188.13 45.56C188.458 45.192 188.622 44.724 188.622 44.156C188.622 43.764 188.546 43.424 188.394 43.136C188.25 42.84 188.042 42.612 187.77 42.452C187.498 42.284 187.182 42.2 186.822 42.2C186.462 42.2 186.142 42.284 185.862 42.452C185.59 42.62 185.374 42.852 185.214 43.148C185.062 43.436 184.986 43.768 184.986 44.144C184.986 44.528 185.062 44.868 185.214 45.164C185.374 45.452 185.594 45.68 185.874 45.848C186.154 46.016 186.474 46.1 186.834 46.1ZM188.55 47V45.464L188.754 44.072L188.55 42.692V41.3H189.642V47H188.55ZM191.214 47V41.3H192.294V47H191.214ZM192.294 43.748L191.886 43.568C191.886 42.84 192.054 42.26 192.39 41.828C192.726 41.396 193.21 41.18 193.842 41.18C194.13 41.18 194.39 41.232 194.622 41.336C194.854 41.432 195.07 41.596 195.27 41.828L194.562 42.56C194.442 42.432 194.31 42.34 194.166 42.284C194.022 42.228 193.854 42.2 193.662 42.2C193.262 42.2 192.934 42.328 192.678 42.584C192.422 42.84 192.294 43.228 192.294 43.748ZM198.255 47.12C197.727 47.12 197.255 46.992 196.839 46.736C196.423 46.472 196.091 46.116 195.843 45.668C195.603 45.22 195.483 44.716 195.483 44.156C195.483 43.596 195.603 43.092 195.843 42.644C196.091 42.196 196.423 41.84 196.839 41.576C197.255 41.312 197.727 41.18 198.255 41.18C198.679 41.18 199.063 41.272 199.407 41.456C199.751 41.632 200.027 41.88 200.235 42.2C200.451 42.512 200.571 42.876 200.595 43.292V45.008C200.571 45.416 200.455 45.78 200.247 46.1C200.039 46.42 199.763 46.672 199.419 46.856C199.075 47.032 198.687 47.12 198.255 47.12ZM198.435 46.1C198.795 46.1 199.107 46.016 199.371 45.848C199.643 45.68 199.855 45.452 200.007 45.164C200.159 44.868 200.235 44.532 200.235 44.156C200.235 43.764 200.155 43.424 199.995 43.136C199.843 42.848 199.631 42.62 199.359 42.452C199.095 42.284 198.783 42.2 198.423 42.2C198.063 42.2 197.747 42.284 197.475 42.452C197.203 42.62 196.987 42.852 196.827 43.148C196.675 43.436 196.599 43.768 196.599 44.144C196.599 44.528 196.675 44.868 196.827 45.164C196.987 45.452 197.203 45.68 197.475 45.848C197.755 46.016 198.075 46.1 198.435 46.1ZM201.255 47H200.163V45.464L200.367 44.072L200.163 42.692V38.432H201.255V47Z" fill="white"/>
<rect x="253" width="30" height="30" rx="15" fill="#D7D600"/>
<path d="M246.442 47L249.85 38.672H250.666L254.062 47H252.838L250.042 39.956H250.462L247.642 47H246.442ZM248.062 45.116V44.132H252.442V45.116H248.062ZM256.342 47L253.726 41.3H254.926L257.026 46.112H256.33L258.442 41.3H259.594L256.978 47H256.342ZM262.932 47.12C262.364 47.12 261.852 46.992 261.396 46.736C260.94 46.472 260.58 46.116 260.316 45.668C260.052 45.22 259.92 44.712 259.92 44.144C259.92 43.584 260.048 43.08 260.304 42.632C260.568 42.184 260.92 41.832 261.36 41.576C261.808 41.312 262.308 41.18 262.86 41.18C263.388 41.18 263.852 41.3 264.252 41.54C264.66 41.78 264.976 42.112 265.2 42.536C265.432 42.96 265.548 43.44 265.548 43.976C265.548 44.056 265.544 44.144 265.536 44.24C265.528 44.328 265.512 44.432 265.488 44.552H260.676V43.652H264.912L264.516 44C264.516 43.616 264.448 43.292 264.312 43.028C264.176 42.756 263.984 42.548 263.736 42.404C263.488 42.252 263.188 42.176 262.836 42.176C262.468 42.176 262.144 42.256 261.864 42.416C261.584 42.576 261.368 42.8 261.216 43.088C261.064 43.376 260.988 43.716 260.988 44.108C260.988 44.508 261.068 44.86 261.228 45.164C261.388 45.46 261.616 45.692 261.912 45.86C262.208 46.02 262.548 46.1 262.932 46.1C263.252 46.1 263.544 46.044 263.808 45.932C264.08 45.82 264.312 45.652 264.504 45.428L265.2 46.136C264.928 46.456 264.592 46.7 264.192 46.868C263.8 47.036 263.38 47.12 262.932 47.12ZM266.726 47V41.3H267.806V47H266.726ZM267.806 43.748L267.398 43.568C267.398 42.84 267.566 42.26 267.902 41.828C268.238 41.396 268.722 41.18 269.354 41.18C269.642 41.18 269.902 41.232 270.134 41.336C270.366 41.432 270.582 41.596 270.782 41.828L270.074 42.56C269.954 42.432 269.822 42.34 269.678 42.284C269.534 42.228 269.366 42.2 269.174 42.2C268.774 42.2 268.446 42.328 268.19 42.584C267.934 42.84 267.806 43.228 267.806 43.748ZM273.779 47.12C273.259 47.12 272.787 46.992 272.363 46.736C271.939 46.472 271.603 46.116 271.354 45.668C271.115 45.22 270.995 44.716 270.995 44.156C270.995 43.596 271.115 43.092 271.354 42.644C271.603 42.196 271.935 41.84 272.351 41.576C272.775 41.312 273.251 41.18 273.779 41.18C274.211 41.18 274.595 41.272 274.931 41.456C275.275 41.632 275.551 41.88 275.759 42.2C275.967 42.512 276.083 42.876 276.107 43.292V45.008C276.083 45.416 275.967 45.78 275.759 46.1C275.559 46.42 275.287 46.672 274.943 46.856C274.607 47.032 274.219 47.12 273.779 47.12ZM273.959 46.1C274.495 46.1 274.927 45.92 275.255 45.56C275.583 45.192 275.747 44.724 275.747 44.156C275.747 43.764 275.671 43.424 275.519 43.136C275.375 42.84 275.167 42.612 274.895 42.452C274.623 42.284 274.307 42.2 273.947 42.2C273.587 42.2 273.267 42.284 272.987 42.452C272.715 42.62 272.499 42.852 272.339 43.148C272.187 43.436 272.111 43.768 272.111 44.144C272.111 44.528 272.187 44.868 272.339 45.164C272.499 45.452 272.719 45.68 272.999 45.848C273.279 46.016 273.599 46.1 273.959 46.1ZM275.675 47V45.464L275.879 44.072L275.675 42.692V41.3H276.767V47H275.675ZM280.703 49.508C280.119 49.508 279.599 49.4 279.143 49.184C278.695 48.968 278.335 48.664 278.063 48.272L278.759 47.564C278.991 47.86 279.267 48.084 279.587 48.236C279.907 48.396 280.287 48.476 280.727 48.476C281.311 48.476 281.771 48.32 282.107 48.008C282.451 47.704 282.623 47.292 282.623 46.772V45.356L282.815 44.072L282.623 42.8V41.3H283.703V46.772C283.703 47.316 283.575 47.792 283.319 48.2C283.071 48.608 282.719 48.928 282.263 49.16C281.815 49.392 281.295 49.508 280.703 49.508ZM280.703 46.904C280.183 46.904 279.715 46.78 279.299 46.532C278.891 46.284 278.567 45.944 278.327 45.512C278.087 45.072 277.967 44.58 277.967 44.036C277.967 43.492 278.087 43.008 278.327 42.584C278.567 42.152 278.891 41.812 279.299 41.564C279.715 41.308 280.183 41.18 280.703 41.18C281.151 41.18 281.547 41.268 281.891 41.444C282.235 41.62 282.507 41.868 282.707 42.188C282.915 42.5 283.027 42.868 283.043 43.292V44.804C283.019 45.22 282.903 45.588 282.695 45.908C282.495 46.22 282.223 46.464 281.879 46.64C281.535 46.816 281.143 46.904 280.703 46.904ZM280.919 45.884C281.271 45.884 281.579 45.808 281.843 45.656C282.115 45.504 282.323 45.292 282.467 45.02C282.611 44.74 282.683 44.416 282.683 44.048C282.683 43.68 282.607 43.36 282.455 43.088C282.311 42.808 282.107 42.592 281.843 42.44C281.579 42.28 281.267 42.2 280.907 42.2C280.547 42.2 280.231 42.28 279.959 42.44C279.687 42.592 279.471 42.808 279.311 43.088C279.159 43.36 279.083 43.676 279.083 44.036C279.083 44.396 279.159 44.716 279.311 44.996C279.471 45.276 279.687 45.496 279.959 45.656C280.239 45.808 280.559 45.884 280.919 45.884ZM287.928 47.12C287.36 47.12 286.848 46.992 286.392 46.736C285.936 46.472 285.576 46.116 285.312 45.668C285.048 45.22 284.916 44.712 284.916 44.144C284.916 43.584 285.044 43.08 285.3 42.632C285.564 42.184 285.916 41.832 286.356 41.576C286.804 41.312 287.304 41.18 287.856 41.18C288.384 41.18 288.848 41.3 289.248 41.54C289.656 41.78 289.972 42.112 290.196 42.536C290.428 42.96 290.544 43.44 290.544 43.976C290.544 44.056 290.54 44.144 290.532 44.24C290.524 44.328 290.508 44.432 290.484 44.552H285.672V43.652H289.908L289.512 44C289.512 43.616 289.444 43.292 289.308 43.028C289.172 42.756 288.98 42.548 288.732 42.404C288.484 42.252 288.184 42.176 287.832 42.176C287.464 42.176 287.14 42.256 286.86 42.416C286.58 42.576 286.364 42.8 286.212 43.088C286.06 43.376 285.984 43.716 285.984 44.108C285.984 44.508 286.064 44.86 286.224 45.164C286.384 45.46 286.612 45.692 286.908 45.86C287.204 46.02 287.544 46.1 287.928 46.1C288.248 46.1 288.54 46.044 288.804 45.932C289.076 45.82 289.308 45.652 289.5 45.428L290.196 46.136C289.924 46.456 289.588 46.7 289.188 46.868C288.796 47.036 288.376 47.12 287.928 47.12Z" fill="white"/>
<rect x="334" width="30" height="30" rx="15" fill="#92D700"/>
<path d="M336.863 47V38.672H337.991V47H336.863ZM337.631 47V45.968H342.407V47H337.631ZM337.631 43.232V42.248H342.011V43.232H337.631ZM337.631 39.704V38.672H342.347V39.704H337.631ZM346.068 47.12C345.548 47.12 345.076 46.992 344.652 46.736C344.228 46.472 343.892 46.116 343.644 45.668C343.404 45.22 343.284 44.716 343.284 44.156C343.284 43.596 343.404 43.092 343.644 42.644C343.892 42.196 344.224 41.84 344.64 41.576C345.064 41.312 345.54 41.18 346.068 41.18C346.5 41.18 346.884 41.272 347.22 41.456C347.564 41.632 347.84 41.88 348.048 42.2C348.256 42.512 348.372 42.876 348.396 43.292V45.008C348.372 45.416 348.256 45.78 348.048 46.1C347.848 46.42 347.576 46.672 347.232 46.856C346.896 47.032 346.508 47.12 346.068 47.12ZM346.248 46.1C346.784 46.1 347.216 45.92 347.544 45.56C347.872 45.192 348.036 44.724 348.036 44.156C348.036 43.764 347.96 43.424 347.808 43.136C347.664 42.84 347.456 42.612 347.184 42.452C346.912 42.284 346.596 42.2 346.236 42.2C345.876 42.2 345.556 42.284 345.276 42.452C345.004 42.62 344.788 42.852 344.628 43.148C344.476 43.436 344.4 43.768 344.4 44.144C344.4 44.528 344.476 44.868 344.628 45.164C344.788 45.452 345.008 45.68 345.288 45.848C345.568 46.016 345.888 46.1 346.248 46.1ZM347.964 47V45.464L348.168 44.072L347.964 42.692V41.3H349.056V47H347.964ZM352.44 47.12C352.12 47.12 351.816 47.08 351.528 47C351.248 46.912 350.988 46.792 350.748 46.64C350.508 46.48 350.3 46.292 350.124 46.076L350.82 45.38C351.028 45.636 351.268 45.828 351.54 45.956C351.812 46.076 352.116 46.136 352.452 46.136C352.788 46.136 353.048 46.08 353.232 45.968C353.416 45.848 353.508 45.684 353.508 45.476C353.508 45.268 353.432 45.108 353.28 44.996C353.136 44.876 352.948 44.78 352.716 44.708C352.484 44.628 352.236 44.552 351.972 44.48C351.716 44.4 351.472 44.3 351.24 44.18C351.008 44.06 350.816 43.896 350.664 43.688C350.52 43.48 350.448 43.204 350.448 42.86C350.448 42.516 350.532 42.22 350.7 41.972C350.868 41.716 351.1 41.52 351.396 41.384C351.7 41.248 352.064 41.18 352.488 41.18C352.936 41.18 353.332 41.26 353.676 41.42C354.028 41.572 354.316 41.804 354.54 42.116L353.844 42.812C353.684 42.604 353.484 42.444 353.244 42.332C353.012 42.22 352.748 42.164 352.452 42.164C352.14 42.164 351.9 42.22 351.732 42.332C351.572 42.436 351.492 42.584 351.492 42.776C351.492 42.968 351.564 43.116 351.708 43.22C351.852 43.324 352.04 43.412 352.272 43.484C352.512 43.556 352.76 43.632 353.016 43.712C353.272 43.784 353.516 43.884 353.748 44.012C353.98 44.14 354.168 44.312 354.312 44.528C354.464 44.744 354.54 45.028 354.54 45.38C354.54 45.916 354.348 46.34 353.964 46.652C353.588 46.964 353.08 47.12 352.44 47.12ZM357.621 47.048L355.149 41.3H356.349L358.185 45.8H357.801L359.733 41.3H360.933L358.269 47.048H357.621ZM355.989 49.388L357.669 45.944L358.269 47.048L357.189 49.388H355.989Z" fill="white"/>
<rect x="414" width="30" height="30" rx="15" fill="#00C947"/>
<path d="M406.146 47L402.81 38.672H404.034L406.782 45.716H406.338L409.11 38.672H410.322L406.962 47H406.146ZM412.948 47.12C412.38 47.12 411.868 46.992 411.412 46.736C410.956 46.472 410.596 46.116 410.332 45.668C410.068 45.22 409.936 44.712 409.936 44.144C409.936 43.584 410.064 43.08 410.32 42.632C410.584 42.184 410.936 41.832 411.376 41.576C411.824 41.312 412.324 41.18 412.876 41.18C413.404 41.18 413.868 41.3 414.268 41.54C414.676 41.78 414.992 42.112 415.216 42.536C415.448 42.96 415.564 43.44 415.564 43.976C415.564 44.056 415.56 44.144 415.552 44.24C415.544 44.328 415.528 44.432 415.504 44.552H410.692V43.652H414.928L414.532 44C414.532 43.616 414.464 43.292 414.328 43.028C414.192 42.756 414 42.548 413.752 42.404C413.504 42.252 413.204 42.176 412.852 42.176C412.484 42.176 412.16 42.256 411.88 42.416C411.6 42.576 411.384 42.8 411.232 43.088C411.08 43.376 411.004 43.716 411.004 44.108C411.004 44.508 411.084 44.86 411.244 45.164C411.404 45.46 411.632 45.692 411.928 45.86C412.224 46.02 412.564 46.1 412.948 46.1C413.268 46.1 413.56 46.044 413.824 45.932C414.096 45.82 414.328 45.652 414.52 45.428L415.216 46.136C414.944 46.456 414.608 46.7 414.208 46.868C413.816 47.036 413.396 47.12 412.948 47.12ZM416.741 47V41.3H417.821V47H416.741ZM417.821 43.748L417.413 43.568C417.413 42.84 417.581 42.26 417.917 41.828C418.253 41.396 418.737 41.18 419.369 41.18C419.657 41.18 419.917 41.232 420.149 41.336C420.381 41.432 420.597 41.596 420.797 41.828L420.089 42.56C419.969 42.432 419.837 42.34 419.693 42.284C419.549 42.228 419.381 42.2 419.189 42.2C418.789 42.2 418.461 42.328 418.205 42.584C417.949 42.84 417.821 43.228 417.821 43.748ZM423.324 47.048L420.852 41.3H422.052L423.888 45.8H423.504L425.436 41.3H426.636L423.972 47.048H423.324ZM421.692 49.388L423.372 45.944L423.972 47.048L422.892 49.388H421.692ZM430.304 47V38.672H431.432V47H430.304ZM431.072 47V45.968H435.848V47H431.072ZM431.072 43.232V42.248H435.452V43.232H431.072ZM431.072 39.704V38.672H435.788V39.704H431.072ZM439.509 47.12C438.989 47.12 438.517 46.992 438.093 46.736C437.669 46.472 437.333 46.116 437.085 45.668C436.845 45.22 436.725 44.716 436.725 44.156C436.725 43.596 436.845 43.092 437.085 42.644C437.333 42.196 437.665 41.84 438.081 41.576C438.505 41.312 438.981 41.18 439.509 41.18C439.941 41.18 440.325 41.272 440.661 41.456C441.005 41.632 441.281 41.88 441.489 42.2C441.697 42.512 441.813 42.876 441.837 43.292V45.008C441.813 45.416 441.697 45.78 441.489 46.1C441.289 46.42 441.017 46.672 440.673 46.856C440.337 47.032 439.949 47.12 439.509 47.12ZM439.689 46.1C440.225 46.1 440.657 45.92 440.985 45.56C441.313 45.192 441.477 44.724 441.477 44.156C441.477 43.764 441.401 43.424 441.249 43.136C441.105 42.84 440.897 42.612 440.625 42.452C440.353 42.284 440.037 42.2 439.677 42.2C439.317 42.2 438.997 42.284 438.717 42.452C438.445 42.62 438.229 42.852 438.069 43.148C437.917 43.436 437.841 43.768 437.841 44.144C437.841 44.528 437.917 44.868 438.069 45.164C438.229 45.452 438.449 45.68 438.729 45.848C439.009 46.016 439.329 46.1 439.689 46.1ZM441.405 47V45.464L441.609 44.072L441.405 42.692V41.3H442.497V47H441.405ZM445.881 47.12C445.561 47.12 445.257 47.08 444.969 47C444.689 46.912 444.429 46.792 444.189 46.64C443.949 46.48 443.741 46.292 443.565 46.076L444.261 45.38C444.469 45.636 444.709 45.828 444.981 45.956C445.253 46.076 445.557 46.136 445.893 46.136C446.229 46.136 446.489 46.08 446.673 45.968C446.857 45.848 446.949 45.684 446.949 45.476C446.949 45.268 446.873 45.108 446.721 44.996C446.577 44.876 446.389 44.78 446.157 44.708C445.925 44.628 445.677 44.552 445.413 44.48C445.157 44.4 444.913 44.3 444.681 44.18C444.449 44.06 444.257 43.896 444.105 43.688C443.961 43.48 443.889 43.204 443.889 42.86C443.889 42.516 443.973 42.22 444.141 41.972C444.309 41.716 444.541 41.52 444.837 41.384C445.141 41.248 445.505 41.18 445.929 41.18C446.377 41.18 446.773 41.26 447.117 41.42C447.469 41.572 447.757 41.804 447.981 42.116L447.285 42.812C447.125 42.604 446.925 42.444 446.685 42.332C446.453 42.22 446.189 42.164 445.893 42.164C445.581 42.164 445.341 42.22 445.173 42.332C445.013 42.436 444.933 42.584 444.933 42.776C444.933 42.968 445.005 43.116 445.149 43.22C445.293 43.324 445.481 43.412 445.713 43.484C445.953 43.556 446.201 43.632 446.457 43.712C446.713 43.784 446.957 43.884 447.189 44.012C447.421 44.14 447.609 44.312 447.753 44.528C447.905 44.744 447.981 45.028 447.981 45.38C447.981 45.916 447.789 46.34 447.405 46.652C447.029 46.964 446.521 47.12 445.881 47.12ZM451.062 47.048L448.59 41.3H449.79L451.626 45.8H451.242L453.174 41.3H454.374L451.71 47.048H451.062ZM449.43 49.388L451.11 45.944L451.71 47.048L450.63 49.388H449.43Z" fill="white"/>
</svg>
